<?xml version="1.0" encoding="UTF-8" standalone="no"?>
<!-- Generator: Adobe Illustrator 23.0.2, SVG Export Plug-In . SVG Version: 6.00 Build 0)  -->

<svg
   xmlns:dc="http://purl.org/dc/elements/1.1/"
   xmlns:cc="http://creativecommons.org/ns#"
   xmlns:rdf="http://www.w3.org/1999/02/22-rdf-syntax-ns#"
   xmlns:svg="http://www.w3.org/2000/svg"
   xmlns="http://www.w3.org/2000/svg"
   xmlns:sodipodi="http://sodipodi.sourceforge.net/DTD/sodipodi-0.dtd"
   xmlns:inkscape="http://www.inkscape.org/namespaces/inkscape"
   version="1.1"
   id="Layer_1"
   x="0px"
   y="0px"
   viewBox="0 0 212.66498 75.510002"
   xml:space="preserve"
   sodipodi:docname="logo.svg"
   inkscape:export-filename="C:\Users\mende\source\repos\ySense\overrides\ySense\source\img\logo.png"
   inkscape:export-xdpi="96"
   inkscape:export-ydpi="96"
   width="212.66498"
   height="75.510002"
   inkscape:version="0.92.3 (2405546, 2018-03-11)"><metadata
   id="metadata31"><rdf:RDF><cc:Work
       rdf:about=""><dc:format>image/svg+xml</dc:format><dc:type
         rdf:resource="http://purl.org/dc/dcmitype/StillImage" /><dc:title></dc:title></cc:Work></rdf:RDF></metadata><defs
   id="defs29" /><sodipodi:namedview
   pagecolor="#ffffff"
   bordercolor="#666666"
   borderopacity="1"
   objecttolerance="10"
   gridtolerance="10"
   guidetolerance="10"
   inkscape:pageopacity="0"
   inkscape:pageshadow="2"
   inkscape:window-width="1229"
   inkscape:window-height="888"
   id="namedview27"
   showgrid="false"
   fit-margin-top="0"
   fit-margin-left="0"
   fit-margin-right="0"
   fit-margin-bottom="0"
   inkscape:zoom="0.98611111"
   inkscape:cx="104.88498"
   inkscape:cy="35.42"
   inkscape:window-x="619"
   inkscape:window-y="333"
   inkscape:window-maximized="0"
   inkscape:current-layer="Layer_1" />
<style
   type="text/css"
   id="style2">
	.st0{fill:#308542;}
	.st1{fill:#145A96;stroke:#145A96;stroke-width:0.75;stroke-linecap:round;stroke-linejoin:round;stroke-miterlimit:10;}
	.st2{stroke:#000000;stroke-miterlimit:10;}
	.st3{fill:#FFFFFF;}
	.st4{fill:#FFFFFF;stroke:#FFFFFF;stroke-miterlimit:10;}
</style>
<g
   id="g10"
   transform="translate(-39.115018,-31.91)">
	<path
   class="st0"
   d="m 214.01,107.42 c -12.7,0 -24.48,-6.33 -31.5,-16.94 -0.47,-0.71 -0.28,-1.68 0.44,-2.15 0.71,-0.47 1.67,-0.28 2.15,0.44 6.45,9.74 17.26,15.55 28.92,15.55 19.11,0 34.65,-15.55 34.65,-34.65 0,-19.1 -15.55,-34.65 -34.65,-34.65 -10.09,0 -19.67,4.39 -26.26,12.04 -0.56,0.65 -1.54,0.72 -2.18,0.16 -0.65,-0.56 -0.72,-1.54 -0.16,-2.19 7.18,-8.34 17.61,-13.12 28.61,-13.12 20.82,0 37.75,16.94 37.75,37.75 0,20.81 -16.95,37.76 -37.77,37.76 z"
   id="path4"
   inkscape:connector-curvature="0"
   style="fill:#308542" />
	<path
   class="st0"
   d="m 213.83,99.62 c -8,0 -15.52,-3.12 -21.18,-8.77 -0.61,-0.61 -0.61,-1.59 0,-2.19 0.61,-0.61 1.59,-0.61 2.19,0 5.07,5.07 11.82,7.86 18.99,7.86 14.81,0 26.85,-12.05 26.85,-26.85 0,-14.81 -12.05,-26.85 -26.85,-26.85 -5.27,0 -10.37,1.53 -14.75,4.41 -0.72,0.47 -1.68,0.27 -2.15,-0.44 -0.47,-0.71 -0.27,-1.68 0.44,-2.15 4.89,-3.22 10.58,-4.92 16.46,-4.92 16.52,0 29.95,13.44 29.95,29.95 0,16.51 -13.44,29.95 -29.95,29.95 z"
   id="path6"
   inkscape:connector-curvature="0"
   style="fill:#308542" />
	<path
   class="st0"
   d="m 213.87,92.22 c -2.75,0 -5.44,-0.49 -8,-1.46 -0.8,-0.3 -1.2,-1.2 -0.9,-2 0.3,-0.8 1.2,-1.2 2,-0.9 2.2,0.83 4.52,1.26 6.9,1.26 10.73,0 19.46,-8.73 19.46,-19.46 0,-10.73 -8.73,-19.46 -19.46,-19.46 -2.3,0 -4.55,0.4 -6.69,1.18 -0.8,0.29 -1.69,-0.12 -1.99,-0.92 -0.29,-0.8 0.12,-1.69 0.92,-1.99 2.48,-0.91 5.09,-1.37 7.76,-1.37 12.44,0 22.56,10.12 22.56,22.56 0,12.44 -10.12,22.56 -22.56,22.56 z"
   id="path8"
   inkscape:connector-curvature="0"
   style="fill:#308542" />
</g>
<g
   id="g24"
   transform="translate(-39.115018,-31.91)">
	<path
   class="st1"
   d="M 47.5,94.59 H 45.17 L 50.15,82.14 39.49,55.11 h 2.44 l 9.33,24.06 h 0.05 l 9.17,-24.06 h 2.33 z"
   id="path12"
   inkscape:connector-curvature="0"
   style="fill:#145a96;stroke:#145a96;stroke-width:0.75;stroke-linecap:round;stroke-linejoin:round;stroke-miterlimit:10" />
	<path
   class="st1"
   d="m 88.62,45.83 v 2.65 c -2.7,-2.12 -6.09,-3.02 -8.9,-3.02 -5.03,0 -9.01,2.81 -9.01,7.47 0,4.4 3.66,6.47 9.38,9.17 5.78,2.65 10.33,5.25 10.33,11.13 0,6.52 -5.46,10.65 -12.03,10.65 -4.19,0 -8,-1.64 -10.6,-3.76 v -2.86 c 2.81,2.81 6.84,4.45 10.65,4.45 5.3,0 9.7,-3.23 9.7,-8.32 0,-4.66 -3.71,-6.84 -9.49,-9.49 -5.94,-2.81 -10.23,-5.14 -10.23,-10.81 0,-6.09 4.98,-9.86 11.34,-9.86 3.19,0.01 6.48,0.96 8.86,2.6 z"
   id="path14"
   inkscape:connector-curvature="0"
   style="fill:#145a96;stroke:#145a96;stroke-width:0.75;stroke-linecap:round;stroke-linejoin:round;stroke-miterlimit:10" />
	<path
   class="st1"
   d="M 121.06,69.94 H 98.75 c 0.37,7.26 4.93,11.66 11.29,11.66 3.39,0 7,-1.22 10.02,-4.08 v 2.6 c -2.97,2.44 -6.47,3.6 -10.12,3.6 -7.9,0 -13.41,-5.62 -13.41,-14.47 0,-9.12 6.25,-14.63 13.04,-14.63 6.25,0 11.61,4.77 11.61,13.99 -0.02,0.54 -0.07,1.02 -0.12,1.33 z m -2.12,-2.01 c -0.11,-7.63 -4.61,-11.18 -9.38,-11.18 -5.41,0 -10.28,4.24 -10.76,11.18 z"
   id="path16"
   inkscape:connector-curvature="0"
   style="fill:#145a96;stroke:#145a96;stroke-width:0.75;stroke-linecap:round;stroke-linejoin:round;stroke-miterlimit:10" />
	<path
   class="st1"
   d="m 150.26,64.54 v 18.71 h -2.23 V 65.44 c 0,-5.67 -2.91,-8.59 -8,-8.59 -4.77,0 -8.69,3.18 -8.69,8.32 v 18.07 h -2.23 V 55.11 h 1.75 l 0.27,4.98 h 0.05 c 1.54,-3.18 4.93,-5.46 9.17,-5.46 5.99,0 9.91,3.87 9.91,9.91 z"
   id="path18"
   inkscape:connector-curvature="0"
   style="fill:#145a96;stroke:#145a96;stroke-width:0.75;stroke-linecap:round;stroke-linejoin:round;stroke-miterlimit:10" />
	<path
   class="st1"
   d="m 175.65,57.07 v 2.54 c -2.23,-1.75 -4.93,-2.81 -8.06,-2.81 -4.19,0 -6.94,2.07 -6.94,5.19 0,3.29 2.97,4.45 7.42,5.88 4.5,1.48 8.96,2.97 8.96,8 0,4.66 -3.82,7.84 -9.54,7.84 -3.34,0 -6.73,-1.06 -9.49,-3.34 v -2.76 c 2.44,2.38 5.78,3.97 9.49,3.97 4.45,0 7.31,-2.38 7.31,-5.67 0,-3.5 -3.18,-4.77 -7.68,-6.25 -4.66,-1.48 -8.69,-2.92 -8.69,-7.52 0,-4.35 3.76,-7.53 9.22,-7.53 2.96,0.02 5.82,0.92 8,2.46 z"
   id="path20"
   inkscape:connector-curvature="0"
   style="fill:#145a96;stroke:#145a96;stroke-width:0.75;stroke-linecap:round;stroke-linejoin:round;stroke-miterlimit:10" />
	<path
   class="st1"
   d="m 207.34,69.94 h -22.31 c 0.37,7.26 4.93,11.66 11.29,11.66 3.39,0 7,-1.22 10.02,-4.08 v 2.6 c -2.97,2.44 -6.47,3.6 -10.12,3.6 -7.9,0 -13.41,-5.62 -13.41,-14.47 0,-9.12 6.25,-14.63 13.04,-14.63 6.25,0 11.61,4.77 11.61,13.99 -0.01,0.54 -0.07,1.02 -0.12,1.33 z m -2.12,-2.01 c -0.11,-7.63 -4.61,-11.18 -9.38,-11.18 -5.41,0 -10.28,4.24 -10.76,11.18 z"
   id="path22"
   inkscape:connector-curvature="0"
   style="fill:#145a96;stroke:#145a96;stroke-width:0.75;stroke-linecap:round;stroke-linejoin:round;stroke-miterlimit:10" />
</g>
</svg>