<svg xmlns="http://www.w3.org/2000/svg" viewBox="0 0 2033 438" width="300" height="65" aria-hidden="true">
	<g fill-rule="evenodd">
		<path d="M521 93c40-9 74 3 92 17 18 15 29 36 29 65 1 29-13 53-31 74-19 22-62 62-62 62h93v54H462v-44s21-18 36-31 53-47 70-76c18-29 5-60-9-66s-34-5-47 0c-14 5-26 17-26 17l-24-42s20-22 59-30zm1135-5h56v108s12-20 36-24c24-5 45 1 59 13 14 11 24 31 24 52-1 22-1 128-1 128h-58V242c0-13-13-25-29-25s-30 21-30 21v127h-57V88zm-34 88l-8 43s-14-4-29-3c-15 0-34 1-46 16-12 16-11 42-7 54 3 13 13 27 36 33s46 1 46 1l9 37s-21 8-54 8c-32 0-60-6-80-30-19-24-22-65-17-92 5-28 18-48 44-61 25-13 58-13 78-11 19 2 28 5 28 5zm-270-41l57-15v55h40v42h-40s-1 56 0 78c0 23 22 25 30 25 7 0 12-2 12-2v38s-11 9-36 9c-24 0-38-12-47-22-9-11-16-23-16-49v-76h-26v-46h26v-37zm-235 40h49v25s5-7 14-14 24-15 50-16 55 11 70 45c15 35 6 89-4 107-11 19-31 42-64 43-33 0-59-18-59-18v91h-56V175zm56 94c-1 31 15 51 37 51s37-24 38-53c1-28-15-50-37-50-21 1-37 21-38 52zm716-44l-14-37s23-18 68-17c45 0 63 11 75 26 12 14 14 27 13 41v100c0 13 2 27 2 27h-50l-2-23s-21 23-54 23c-32 0-54-17-62-40-7-23 0-51 23-68 22-17 51-18 66-20 16-1 23 0 23 0s-3-26-37-26c-34-1-51 14-51 14zm64 48c-10 1-22 6-27 16s-5 25 6 32c11 8 29 4 37-9 8-12 8-39 8-39s-14-1-24 0zM928 225l-14-37s24-18 69-17c44 0 62 11 74 26 12 14 14 27 14 41-1 13-1 87-1 100s2 27 2 27h-49l-3-23s-21 23-54 23c-32 0-54-17-61-40s0-51 22-68 51-18 67-20c15-1 22 0 22 0s-3-26-37-26c-34-1-51 14-51 14zm64 48c-9 1-22 6-27 16s-5 25 6 32c12 8 30 4 38-9 7-12 7-39 7-39s-14-1-24 0zM886 111l-15 45s-36-8-69-1c-32 8-58 36-58 79 1 42 20 64 48 74 28 11 77 1 77 1l15 47s-31 9-68 9c-36-1-75-12-103-41-27-28-32-62-32-90s8-66 38-93 68-40 106-41 61 11 61 11z" fill="#fff" />
		<path d="M148 137c82 0 149 67 149 149 0 81-67 148-149 148S0 367 0 286c0-82 66-149 148-149zM36 55C36 29 56 0 95 0h110c36 0 55 31 55 54v35l-35-1V56c0-12-10-21-20-21H91c-11 0-20 9-20 19 1 11 0 83 0 83s-9 5-17 11-17 14-17 14-1-80-1-107zm-2 231c0 62 51 113 114 113s114-51 114-113c0-63-51-114-114-114S34 223 34 286zm114-89c49 0 89 40 89 89 0 48-40 88-89 88-48 0-88-40-88-88 0-49 40-89 88-89zm-30 69c0 10 5 20 13 25v44h35v-44c7-5 13-15 13-25 0-17-14-30-31-30-16 0-30 13-30 30z" fill="#3bbbbc" />
	</g>
</svg>
